<svg class="animated" id="freepik_stories-lava-lamp" xmlns="http://www.w3.org/2000/svg" viewBox="0 0 500 500" version="1.1" xmlns:xlink="http://www.w3.org/1999/xlink" xmlns:svgjs="http://svgjs.com/svgjs"><style>svg#freepik_stories-lava-lamp:not(.animated) .animable {opacity: 0;}svg#freepik_stories-lava-lamp.animated #freepik--lava-lamp--inject-41 {animation: 2.5s 1 forwards cubic-bezier(.36,-0.01,.5,1.38) lightSpeedRight;animation-delay: 0s;}            @keyframes lightSpeedRight {              from {                transform: translate3d(50%, 0, 0) skewX(-20deg);                opacity: 0;              }              60% {                transform: skewX(10deg);                opacity: 1;              }              80% {                transform: skewX(-2deg);              }              to {                opacity: 1;                transform: translate3d(0, 0, 0);              }            }        </style><g id="freepik--background-simple--inject-41" class="animable" style="transform-origin: 252.608px 249.937px;"><path d="M466.91,193.9S411.53,64.3,315.69,32c-84.6-28.5-173.71-3.6-203.4,83.77-10.58,31.13-25,65-43.62,91.57C47.77,237.13,18,259.37,23.55,326s72.09,139.54,129,151.11,120.94-29.09,174.68-67S530.39,356.94,466.91,193.9Z" style="fill: rgb(126, 87, 194); transform-origin: 252.608px 249.937px;" id="el0cl8uadlyekh" class="animable"></path><g id="el52rcuz1i5xp"><path d="M466.91,193.9S411.53,64.3,315.69,32c-84.6-28.5-173.71-3.6-203.4,83.77-10.58,31.13-25,65-43.62,91.57C47.77,237.13,18,259.37,23.55,326s72.09,139.54,129,151.11,120.94-29.09,174.68-67S530.39,356.94,466.91,193.9Z" style="fill: rgb(255, 255, 255); opacity: 0.7; transform-origin: 252.608px 249.937px;" class="animable"></path></g></g><g id="freepik--Window--inject-41" class="animable" style="transform-origin: 149.41px 229.8px;"><g id="elxw3xu4mew9l"><g style="opacity: 0.3; transform-origin: 149.41px 229.8px;" class="animable"><rect x="31.15" y="44.14" width="114.58" height="182.53" style="fill: none; stroke: rgb(0, 0, 0); stroke-miterlimit: 10; transform-origin: 88.44px 135.405px;" id="elmegkvu5grb" class="animable"></rect><rect x="153.09" y="44.14" width="114.58" height="182.53" style="fill: none; stroke: rgb(0, 0, 0); stroke-miterlimit: 10; transform-origin: 210.38px 135.405px;" id="elrpu6i38yvhc" class="animable"></rect><line x1="262.47" y1="62.13" x2="174.43" y2="150.17" style="fill: none; stroke: rgb(0, 0, 0); stroke-miterlimit: 10; transform-origin: 218.45px 106.15px;" id="elor51zkv0h8" class="animable"></line><line x1="209.26" y1="128.48" x2="196.77" y2="140.97" style="fill: none; stroke: rgb(0, 0, 0); stroke-miterlimit: 10; transform-origin: 203.015px 134.725px;" id="eltkxak7ql8e" class="animable"></line><line x1="192.83" y1="144.91" x2="166.55" y2="171.19" style="fill: none; stroke: rgb(0, 0, 0); stroke-miterlimit: 10; transform-origin: 179.69px 158.05px;" id="elp273xhx4s7p" class="animable"></line><rect x="31.15" y="232.93" width="114.58" height="182.53" style="fill: none; stroke: rgb(0, 0, 0); stroke-miterlimit: 10; transform-origin: 88.44px 324.195px;" id="eljvby7fca5q" class="animable"></rect><rect x="153.09" y="232.93" width="114.58" height="182.53" style="fill: none; stroke: rgb(0, 0, 0); stroke-miterlimit: 10; transform-origin: 210.38px 324.195px;" id="eli1946iz3n79" class="animable"></rect><line x1="137.64" y1="243.46" x2="49.6" y2="331.5" style="fill: none; stroke: rgb(0, 0, 0); stroke-miterlimit: 10; transform-origin: 93.62px 287.48px;" id="elm8r2spazv9" class="animable"></line><line x1="84.42" y1="309.82" x2="71.94" y2="322.3" style="fill: none; stroke: rgb(0, 0, 0); stroke-miterlimit: 10; transform-origin: 78.18px 316.06px;" id="el2dn801yxzrs" class="animable"></line><line x1="68" y1="326.24" x2="41.72" y2="352.52" style="fill: none; stroke: rgb(0, 0, 0); stroke-miterlimit: 10; transform-origin: 54.86px 339.38px;" id="elcfy4qv472oc" class="animable"></line></g></g></g><g id="freepik--Plant--inject-41" class="animable" style="transform-origin: 94.7056px 338.16px;"><path d="M91.34,414.27c0,1.22.14,2.45.22,3.67.19,2.44.34,4.88.56,7.32.31,3.25.75,6.48,1.22,9.71h.89c0-.84,0-1.68-.07-2.52-.07-2.43-.28-4.86-.25-7.29s0-4.87-.08-7.3l-.06-3.64.06-3.65,0-7.28.2-7.28.08-3.64c0-1.22.13-2.43.2-3.64l.45-7.27a257.86,257.86,0,0,1,4.12-28.87,169,169,0,0,1,7.88-28.08h0a.12.12,0,0,0-.06-.16.13.13,0,0,0-.17.06,169.24,169.24,0,0,0-8.91,27.92,259,259,0,0,0-4.91,28.94l-.7,7.31c-.11,1.22-.24,2.44-.33,3.66l-.19,3.67c-.11,2.45-.26,4.9-.33,7.34l.07,7.36Z" style="fill: gray; transform-origin: 98.9655px 379.654px;" id="eljfzi53ytjz" class="animable"></path><path d="M99.2,435c.53-5.23.91-10.45,1.27-15.67.45-6.36.51-12.74.93-19.1a170.18,170.18,0,0,1,2.27-18.94,172.68,172.68,0,0,1,4.16-18.66.12.12,0,0,0-.08-.16.12.12,0,0,0-.16.08A170.12,170.12,0,0,0,99.34,400c-.64,6.37-1.35,12.75-1.44,19.16-.08,5.26,0,10.52.37,15.78Z" style="fill: gray; transform-origin: 102.855px 398.731px;" id="elg3z136v2ed" class="animable"></path><path d="M104.31,435l1-11.33c.65-6.13,1-12.31,2.36-18.31.16-.74.38-1.47.57-2.21a18.36,18.36,0,0,1,.65-2.19l.75-2.15,1-2a54.44,54.44,0,0,1,5.06-7.68,63.66,63.66,0,0,1,13.26-12.91h0a.14.14,0,0,0,0-.18.14.14,0,0,0-.18,0,65,65,0,0,0-14.12,12.31,57.73,57.73,0,0,0-5.52,7.68L108,398.08l-.89,2.23a19.89,19.89,0,0,0-.77,2.25c-.23.76-.49,1.51-.69,2.28a90.13,90.13,0,0,0-2.92,18.62c-.16,3.84-.17,7.68,0,11.51Z" style="fill: gray; transform-origin: 115.799px 405.504px;" id="elo01fgeppcwd" class="animable"></path><path d="M107.25,435h1c.18-1,.32-1.92.45-2.88.26-1.64.52-3.26.71-4.89s.45-3.23.58-4.86.35-3.26.7-4.85a43.63,43.63,0,0,1,2.75-9.37,20.65,20.65,0,0,1,5.39-8.05h0a.14.14,0,0,0,0-.17.13.13,0,0,0-.18,0c-2.88,1.86-4.8,4.78-6.42,7.72a45.66,45.66,0,0,0-3.6,9.46c-.25.8-.45,1.62-.63,2.45L107.5,422a42.06,42.06,0,0,0-.62,5c0,1.69-.07,3.37,0,5.05C107,433,107.11,434,107.25,435Z" style="fill: gray; transform-origin: 112.854px 417.447px;" id="elyqplmxd47ns" class="animable"></path><path d="M83.74,394.18c1,8.18,1.79,16.38,2.82,24.54l2,16.25H90c0-1.38-.07-2.75-.09-4.13-.08-4.14-.43-8.26-.74-12.39-.7-8.24-2.06-16.4-3.34-24.56s-2.71-16.29-4.2-24.41-3.16-16.2-4.91-24.27a.14.14,0,0,0-.15-.1.14.14,0,0,0-.11.15c1.42,8.13,2.69,16.28,3.9,24.43S82.71,386,83.74,394.18Z" style="fill: gray; transform-origin: 83.2297px 390.04px;" id="el00t622elulnyq" class="animable"></path><path d="M63.3,363.69a36.64,36.64,0,0,1,5.44,8.07c.71,1.47,1.47,2.91,2.09,4.42l1,2.24.86,2.29a133,133,0,0,1,5.49,18.76c.76,3.17,1.25,6.4,1.87,9.6l.77,4.83c.28,1.61.62,3.2.85,4.82.51,3.22,1.11,6.44,1.67,9.66.34,2.2.74,4.39,1.16,6.59h.84c0-2.27-.09-4.53-.2-6.8-.19-3.29-.58-6.56-.93-9.84s-1-6.51-1.66-9.74l-1.16-4.82c-.38-1.6-.74-3.21-1.21-4.79a134.52,134.52,0,0,0-6.3-18.75l-1-2.27-1.1-2.22c-.7-1.49-1.55-2.91-2.35-4.35a36.34,36.34,0,0,0-5.95-7.89.12.12,0,0,0-.17,0,.12.12,0,0,0,0,.18Z" style="fill: gray; transform-origin: 74.3047px 399.217px;" id="eloac5bcqsme" class="animable"></path><path d="M71,406.55c1.67,4.22,3.18,8.5,4.45,12.85s2.21,8.76,3.36,13.12c.23.82.44,1.63.66,2.45H81.8c-.16-1-.33-2-.53-3a84.73,84.73,0,0,0-3.92-13.2c-1.53-4.32-3.29-8.56-5.22-12.71a112.77,112.77,0,0,0-6.56-12,.13.13,0,0,0-.18,0,.12.12,0,0,0,0,.17A114.08,114.08,0,0,1,71,406.55Z" style="fill: gray; transform-origin: 73.5774px 414.497px;" id="ellr6qg619xu" class="animable"></path><path d="M60.92,415a19,19,0,0,1,6.32,4.91,29.92,29.92,0,0,1,4.41,6.67c1.25,2.37,1.89,5,3,7.42.13.33.26.66.38,1h2.47c-.13-.6-.26-1.21-.41-1.81a29.41,29.41,0,0,0-3.63-7.61A31.54,31.54,0,0,0,68.16,419a25.76,25.76,0,0,0-3.36-2.54A14.07,14.07,0,0,0,61,414.73a.15.15,0,0,0-.15.07.13.13,0,0,0,.06.17Z" style="fill: gray; transform-origin: 69.1692px 424.864px;" id="elib8ort9isqe" class="animable"></path><path d="M77.58,357S64.07,353.9,61,339.35s6.93-8.31-2.07-31.17S52,280.12,55.07,273.54s4.85-4.5,7.62,4.16,12.81,22.16,16.62,47.45S77.58,357,77.58,357Z" style="fill: gray; transform-origin: 66.548px 313.334px;" id="elizynoxddcoc" class="animable"></path><path d="M104.25,332.42s-9-3.11-9.35-20.09,6.58-13.5,7.62-34.63,2.42-36,6.23-36.37,13.86,10.39,17.32,33.94-4.5,39.14-11.43,46.07S104.25,332.42,104.25,332.42Z" style="fill: gray; transform-origin: 110.897px 286.87px;" id="el46bjjp3mnuf" class="animable"></path><path d="M72.73,377.45S70.65,365,66.5,359.09s-13.17-11.08-19-22.51-12.47-17-12.13-.69S42.94,360.48,52,366,72.73,377.45,72.73,377.45Z" style="fill: gray; transform-origin: 54.0437px 351.576px;" id="el0o85qij0s21b" class="animable"></path><path d="M68.92,398.92S60.61,383,48.49,371.21s-21.83-17.66-18.36-11.77,7.62,5.54,13.51,15.93,4.15,18,12.47,23.9S68.92,398.92,68.92,398.92Z" style="fill: gray; transform-origin: 49.169px 379.465px;" id="elgck8eiiq0yk" class="animable"></path><path d="M67.88,419.36c-.34-1-.69-8.66-12.47-14.89s-22.86-3.81-21.47-.7,8.66,8.32,15.93,11.43S67.88,419.36,67.88,419.36Z" style="fill: gray; transform-origin: 50.8508px 409.974px;" id="elw2q3lz36jfp" class="animable"></path><path d="M103.56,378.14s-5.2-6.58-2.43-20.43,9-10.39,15.93-17.67,5.55-8.31,12.47-15.93,13.16-11.78,15.94-8.66-1.39,12.82-5.55,18.36-10.73,8.31-13.85,15.24-1.73,18-9.7,23.2S103.56,378.14,103.56,378.14Z" style="fill: gray; transform-origin: 123.344px 346.273px;" id="el54s41g4ltrk" class="animable"></path><path d="M120.87,382s12.47-14.2,21.48-24.59,12.47-18.36,12.81-11.43,3.12,12.47-4.15,21.48S120.87,382,120.87,382Z" style="fill: gray; transform-origin: 138.417px 362.688px;" id="el6tyvxezcqq8" class="animable"></path><path d="M114.29,404.81s-.34-5.54,19.4-18.36,28.05-15.24,26-10-10.74,10.39-20.09,19.74S114.29,404.81,114.29,404.81Z" style="fill: gray; transform-origin: 137.141px 389.343px;" id="elydcz9dizspe" class="animable"></path><path d="M78.4,355.54S73.77,330.69,68.92,313s-8-28.4-8-28.4" style="fill: gray; transform-origin: 69.66px 320.07px;" id="elaqfs6ahke5i" class="animable"></path><path d="M103.45,332.68s8.42-26.93,11.19-43.21-.35-28.4-1.73-35.67" style="fill: gray; transform-origin: 109.6px 293.24px;" id="elgng76zsiwhi" class="animable"></path><path d="M71.64,376.93a130.2,130.2,0,0,0-12.76-18.18c-7.62-9-13.51-13.86-17-22.52" style="fill: gray; transform-origin: 56.76px 356.58px;" id="elwnpoxru45ff" class="animable"></path><path d="M103.56,378.14s2.77-16.62,9.35-25.28,19.74-22.17,24.94-30.83" style="fill: gray; transform-origin: 120.705px 350.085px;" id="elb28vahj00e4" class="animable"></path><path d="M67.07,419s-11.66-7.59-20-11.74" style="fill: gray; transform-origin: 57.07px 413.13px;" id="eld84ormenque" class="animable"></path></g><g id="freepik--Picture--inject-41" class="animable" style="transform-origin: 394.485px 120.41px;"><g id="elyr9q74qkdc"><g style="opacity: 0.3; transform-origin: 394.485px 120.41px;" class="animable"><rect x="338.94" y="49.95" width="111.09" height="140.92" style="fill: none; stroke: rgb(0, 0, 0); stroke-miterlimit: 10; transform-origin: 394.485px 120.41px;" id="elxt8hqkkcv9a" class="animable"></rect><rect x="346.25" y="59.23" width="96.47" height="122.37" style="fill: none; stroke: rgb(0, 0, 0); stroke-miterlimit: 10; transform-origin: 394.485px 120.415px;" id="el0g3yjvacrv8h" class="animable"></rect><rect x="374.92" y="95.6" width="39.12" height="49.63" style="fill: none; stroke: rgb(0, 0, 0); stroke-miterlimit: 10; transform-origin: 394.48px 120.415px;" id="elu8mpplnts7l" class="animable"></rect></g></g></g><g id="freepik--Character--inject-41" class="animable" style="transform-origin: 307.295px 294.42px;"><path d="M456,435c-1.44-10-12.9-84.67-37.84-104.67-82.55-66.2-115.84-47.66-115.84-47.66s-46.71,3-73.88,28.37C195,342.23,162.65,424.42,158.59,435Z" style="fill: rgb(181, 181, 181); stroke: rgb(38, 50, 56); stroke-miterlimit: 10; transform-origin: 307.295px 357.64px;" id="elhyzdg3i3s4r" class="animable"></path><path d="M246.36,368c-2.3-2.72-5.83-2.36-8.71-1.32a8.57,8.57,0,0,1-.91-1.53c-2.14-4.63-6.06-11.76-6.06-11.76s-4.64-6.06-7.84-7.48-10.34-2.14-14.26-1.79-11,4.64-16.75,11.05-7.84,8.91-3.92,9.27,6.06.71,8.91-1.07a36.11,36.11,0,0,1,5.7-2.85l7.13,1.78-.75,1c-2.06-1.6-5.06-1.84-8.07-.34a6.4,6.4,0,0,0-4.91,6.95,11.87,11.87,0,0,0-9.49,8.3,9.65,9.65,0,0,0,1.34,9.31c-.68,1-4.28,6.6-3.05,10.91.5,1.74,2.72,3.64,5.62,5.27a23.12,23.12,0,0,0,6.86,5.15L187.72,435h49.8l1.36-37.3a19,19,0,0,0,3.91-3.27c5.24-5.59,7.73-12.2,5.48-16.82C250.1,374.69,249.47,371.69,246.36,368Z" style="fill: rgb(38, 50, 56); stroke: rgb(38, 50, 56); stroke-miterlimit: 10; transform-origin: 216.878px 389.516px;" id="elq8v4y7k10q" class="animable"></path><polygon points="391.72 434.14 391.72 407.08 388.91 420.05 384.96 411.03 386.65 434.14 391.72 434.14" style="fill: rgb(38, 50, 56); stroke: rgb(38, 50, 56); stroke-miterlimit: 10; transform-origin: 388.34px 420.61px;" id="el68u9frlmoi" class="animable"></polygon><polygon points="233.07 434.14 236.29 407.08 231.93 420.05 229.05 411.03 228 434.14 233.07 434.14" style="fill: rgb(38, 50, 56); stroke: rgb(38, 50, 56); stroke-miterlimit: 10; transform-origin: 232.145px 420.61px;" id="el05axo5wt6yfi" class="animable"></polygon><path d="M418.16,330.28c-59.47-47.69-93.37-51.4-107.68-49.75,18,1.74,49.07,11.86,96.32,49.75,24.94,20,36.4,94.66,37.84,104.67H456C454.56,424.94,443.1,350.28,418.16,330.28Z" style="fill: rgb(38, 50, 56); stroke: rgb(38, 50, 56); stroke-miterlimit: 10; transform-origin: 383.24px 357.591px;" id="el4bu3twl9qbh" class="animable"></path><path d="M273.34,312.06s-5.7,31-.71,62S300.42,432.87,309,430s39.56-32.79,48.47-71.27S356,289.61,356,289.61h-82Z" style="fill: rgb(255, 255, 255); stroke: rgb(38, 50, 56); stroke-miterlimit: 10; transform-origin: 315.832px 359.907px;" id="el61cpjw92tz" class="animable"></path><polygon points="300.11 434.95 298.49 335.04 281.21 328.96 271.45 434.95 300.11 434.95" style="fill: rgb(126, 87, 194); stroke: rgb(38, 50, 56); stroke-miterlimit: 10; transform-origin: 285.78px 381.955px;" id="elo7rhstlkmkr" class="animable"></polygon><polygon points="326.13 434.95 312.12 338.69 295.08 333.1 297.16 434.95 326.13 434.95" style="fill: rgb(126, 87, 194); stroke: rgb(38, 50, 56); stroke-miterlimit: 10; transform-origin: 310.605px 384.025px;" id="eln6kgc6rytdf" class="animable"></polygon><path d="M274.4,320.2s8.52,20.2,19.47,26.52,19.46,12.17,42.58-.48,25.55-36,23.6-48.18S351.78,281.75,349.1,282s-4.62,15.81-7.78,27-18.5,32.12-37,25.79S274.4,320.2,274.4,320.2Z" style="fill: rgb(126, 87, 194); stroke: rgb(38, 50, 56); stroke-miterlimit: 10; transform-origin: 317.492px 317.86px;" id="el6fzvrrt3g3c" class="animable"></path><path d="M313.9,345.47s36.41-12.78,47.77-24.81,12.7-16,12.7-16L359,293.93l.48-10.23L349.1,282S323.6,341.54,313.9,345.47Z" style="fill: rgb(38, 50, 56); stroke: rgb(38, 50, 56); stroke-miterlimit: 10; transform-origin: 344.135px 313.735px;" id="el8pfo6gq92c9" class="animable"></path><path d="M259.75,259.39s-6.57-4.86-8.76,2.19,5.6,16.55,8.76,19l3.17,2.44Z" style="fill: rgb(255, 255, 255); stroke: rgb(38, 50, 56); stroke-miterlimit: 10; transform-origin: 256.764px 270.389px;" id="elirdn4xwa3oc" class="animable"></path><path d="M260.25,267.2a133.3,133.3,0,0,0,1.7,21.41c1.93,12.8,1.2,18.22,6.52,25.6s22.23,24.86,24.4,26.83,12.33,7.14,21,4.43S334,330.7,339.75,323.32s9.91-21.91,10.87-26.09,2.18-10.09,2.18-10.09,1.76.48,5.95-2.72,9.75-5.9,10.48-13.53-4.11-17.48-4.11-17.48-36.24-14.76-50.26-20.18-35.52-12.8-35.52-12.8l-14.49,4.93s-7,6.64-8,9.84-1.21,8.37-.72,13.78S260.25,267.2,260.25,267.2Z" style="fill: rgb(255, 255, 255); stroke: rgb(38, 50, 56); stroke-miterlimit: 10; transform-origin: 312.591px 283.335px;" id="eltvgj446rs5" class="animable"></path><path d="M271.55,229.2s2.18,17.44,15.26,23.25a158.83,158.83,0,0,0,23.26,8.36V247.36s6.17,10.54,13.08,13.08,17.44,2.18,17.44,2.18V255s4.72,8,6.9,10.18a70,70,0,0,0,7.63,5.81l11.26-6.18a26.64,26.64,0,0,1,0,8c-.72,3.27-6.9,10.9-6.9,10.9s10.17.72,14.53-6.91,18.53-25.79,16.72-54.13-29.07-61.77-63.22-67.59-59.23,8.36-69.76,20S233,212.48,237.4,231s16.35,24.35,17.8,27.25,6.54,14.9,6.54,14.9-.36-14.17,0-23.25S271.55,229.2,271.55,229.2Z" style="fill: rgb(38, 50, 56); stroke: rgb(38, 50, 56); stroke-miterlimit: 10; transform-origin: 313.734px 218.729px;" id="el8xisnx02cq7" class="animable"></path><path d="M366.75,222.66a26.18,26.18,0,0,0,6.79-2.1" style="fill: none; stroke: rgb(105, 105, 105); stroke-miterlimit: 10; transform-origin: 370.145px 221.61px;" id="elkb42l2jidy" class="animable"></path><path d="M281.1,186s-1,10.38,17.79,23.23C314,219.51,344,225.05,362.44,223.25" style="fill: none; stroke: rgb(105, 105, 105); stroke-miterlimit: 10; transform-origin: 321.765px 204.793px;" id="elyduw30j0xf" class="animable"></path><path d="M358.94,210.56a123.19,123.19,0,0,0,13.61,2.09" style="fill: none; stroke: rgb(105, 105, 105); stroke-miterlimit: 10; transform-origin: 365.745px 211.605px;" id="eleiglhyvtzsu" class="animable"></path><path d="M304.33,176.57s13.25,23.18,49.27,32.72" style="fill: none; stroke: rgb(105, 105, 105); stroke-miterlimit: 10; transform-origin: 328.965px 192.93px;" id="elq1xsn8awai" class="animable"></path><path d="M268,216a61.41,61.41,0,0,0,2.7,6.53" style="fill: none; stroke: rgb(105, 105, 105); stroke-miterlimit: 10; transform-origin: 269.35px 219.265px;" id="elk5d4y76km" class="animable"></path><path d="M268.24,172.61a66.8,66.8,0,0,0-1.31,39.93" style="fill: none; stroke: rgb(105, 105, 105); stroke-miterlimit: 10; transform-origin: 266.367px 192.575px;" id="el0zmb3rjurct" class="animable"></path><path d="M307.25,234.44a123.69,123.69,0,0,1-5.39-14.87" style="fill: none; stroke: rgb(105, 105, 105); stroke-miterlimit: 10; transform-origin: 304.555px 227.005px;" id="ell9g2ark0jfh" class="animable"></path><path d="M309.27,238.85s-.41-.83-1.07-2.27" style="fill: none; stroke: rgb(105, 105, 105); stroke-miterlimit: 10; transform-origin: 308.735px 237.715px;" id="elpizjc7ggjl8" class="animable"></path><path d="M362,255.09a42.2,42.2,0,0,0,5.6,1.56" style="fill: none; stroke: rgb(105, 105, 105); stroke-miterlimit: 10; transform-origin: 364.8px 255.87px;" id="eliu6mnglc2m" class="animable"></path><path d="M334.48,231.93S342.4,246,357.65,253.3" style="fill: none; stroke: rgb(105, 105, 105); stroke-miterlimit: 10; transform-origin: 346.065px 242.615px;" id="elluuvb02t7kh" class="animable"></path><path d="M283.65,278.1c0,2.83-1.2,5.11-2.68,5.11s-2.68-2.28-2.68-5.11S279.49,273,281,273,283.65,275.28,283.65,278.1Z" style="fill: rgb(38, 50, 56); stroke: rgb(38, 50, 56); stroke-miterlimit: 10; transform-origin: 280.97px 278.105px;" id="eldxk2n07ha27" class="animable"></path><path d="M318.93,278.1c0,2.83-1.2,5.11-2.68,5.11s-2.67-2.28-2.67-5.11,1.19-5.11,2.67-5.11S318.93,275.28,318.93,278.1Z" style="fill: rgb(38, 50, 56); stroke: rgb(38, 50, 56); stroke-miterlimit: 10; transform-origin: 316.255px 278.1px;" id="elz22zmg4sa2e" class="animable"></path><path d="M294.11,294.16,292.16,302s2.44,4.62,9.25,4.62" style="fill: none; stroke: rgb(38, 50, 56); stroke-miterlimit: 10; transform-origin: 296.785px 300.39px;" id="el62bbusg1sov" class="animable"></path><path d="M285.59,309.74s5.6,6.81,16.31,6.08S322.09,309,322.09,309s-10.22,11.68-19.46,13.14S285.59,309.74,285.59,309.74Z" style="fill: rgb(255, 255, 255); stroke: rgb(38, 50, 56); stroke-miterlimit: 10; transform-origin: 303.84px 315.624px;" id="elg7g867qt81j" class="animable"></path><path d="M272.45,266.42a12.3,12.3,0,0,1,11.93-3.65s3.4-.24.24-3.16S273.67,261.07,272.45,266.42Z" style="fill: rgb(38, 50, 56); stroke: rgb(38, 50, 56); stroke-miterlimit: 10; transform-origin: 279.207px 262.548px;" id="el1ie465norna" class="animable"></path><path d="M324.41,266.42a12.29,12.29,0,0,0-11.92-3.65s-3.41-.24-.24-3.16S323.2,261.07,324.41,266.42Z" style="fill: rgb(38, 50, 56); stroke: rgb(38, 50, 56); stroke-miterlimit: 10; transform-origin: 317.655px 262.548px;" id="elglp8adu2msw" class="animable"></path><polygon points="209.17 435.11 218.9 365.07 182.92 362.69 159.36 435.11 209.17 435.11" style="fill: rgb(255, 255, 255); stroke: rgb(38, 50, 56); stroke-miterlimit: 10; transform-origin: 189.13px 398.9px;" id="elf8dyt2kgods" class="animable"></polygon><path d="M210.62,323.17s-4.64-6.06-7.84-7.48-10.34-2.14-14.26-1.78-11.05,4.63-16.75,11-7.84,8.91-3.92,9.27,6.06.71,8.91-1.07a36.11,36.11,0,0,1,5.7-2.85l7.13,1.78s-6.41,8.55-12.12,13.54-9.26,22.81-7.84,26.73,15,11.4,22.81,10.34,11.05-6.06,16-10,8.91-2.85,14.25-8.56,7.84-12.47,5.35-17.1-9.27-7.49-11.4-12.12S210.62,323.17,210.62,323.17Z" style="fill: rgb(255, 255, 255); stroke: rgb(38, 50, 56); stroke-miterlimit: 10; transform-origin: 197.431px 348.285px;" id="elqg9jvsotqrl" class="animable"></path><path d="M213.11,338.85s-8.91,11-11.76,13.19-4.28,5.7,2.5,6.06,18.53-5,22.45-8.56,3.92-7.12,0-11.76S214.89,337.43,213.11,338.85Z" style="fill: rgb(255, 255, 255); stroke: rgb(38, 50, 56); stroke-miterlimit: 10; transform-origin: 214.109px 346.898px;" id="el3msw5ld5ljx" class="animable"></path><path d="M182.46,330.3s10-5,12-8.93" style="fill: none; stroke: rgb(38, 50, 56); stroke-miterlimit: 10; transform-origin: 188.46px 325.835px;" id="eli9ilxthz1m8" class="animable"></path><path d="M189.59,332.08A18.83,18.83,0,0,0,203.81,327" style="fill: none; stroke: rgb(38, 50, 56); stroke-miterlimit: 10; transform-origin: 196.7px 329.563px;" id="el7vv2gemj1iv" class="animable"></path><path d="M180.77,332.72a6.4,6.4,0,0,0-4.91,6.95c.51,5.76,11,16.94,15.25,19.82s7.79.51,9.49-1.35.84-6.27-1.87-10.68-7.11-11.52-9.15-13.72S184.16,331,180.77,332.72Z" style="fill: rgb(255, 255, 255); stroke: rgb(38, 50, 56); stroke-miterlimit: 10; transform-origin: 188.647px 346.268px;" id="elfoejkmkdib" class="animable"></path><path d="M175.86,339.67a11.87,11.87,0,0,0-9.49,8.3c-2.54,7.63,3.39,11.69,5.59,13s11.69,6.44,15.59,6.61,5.08-.51,5.93-1.87-.17-4.74-.17-4.74-5.25-5.25-9.66-9.32S175.86,339.67,175.86,339.67Z" style="fill: rgb(255, 255, 255); stroke: rgb(38, 50, 56); stroke-miterlimit: 10; transform-origin: 179.784px 353.638px;" id="el5v05xht0pk" class="animable"></path><path d="M167.83,357.11s-4.52,6.33-3.17,11.08,15.38,10.62,21.48,9,1.41-9.6,1.41-9.6S173,361.18,167.83,357.11Z" style="fill: rgb(255, 255, 255); stroke: rgb(38, 50, 56); stroke-miterlimit: 10; transform-origin: 176.84px 367.287px;" id="el6shua1bg92" class="animable"></path></g><g id="freepik--lava-lamp--inject-41" class="animable animator-active" style="transform-origin: 144.71px 294.825px;"><polygon points="179.76 318.78 111.49 318.78 131.97 154.7 159.28 154.7 179.76 318.78" style="fill: rgb(255, 255, 255); stroke: rgb(38, 50, 56); stroke-miterlimit: 10; transform-origin: 145.625px 236.74px;" id="el4f5x9dle14i" class="animable"></polygon><polygon points="111.49 318.78 129.14 379.46 162.67 379.46 179.76 318.78 111.49 318.78" style="fill: rgb(181, 181, 181); stroke: rgb(38, 50, 56); stroke-miterlimit: 10; transform-origin: 145.625px 349.12px;" id="el5djsxaeyy4u" class="animable"></polygon><polygon points="123.36 318.78 134.87 379.46 156.74 379.46 167.89 318.78 123.36 318.78" style="fill: rgb(112, 112, 112); stroke: rgb(38, 50, 56); stroke-miterlimit: 10; transform-origin: 145.625px 349.12px;" id="el1zoxfrvzxd7" class="animable"></polygon><polygon points="129.14 379.46 109.58 434.95 179.84 434.95 162.67 379.46 129.14 379.46" style="fill: rgb(181, 181, 181); stroke: rgb(38, 50, 56); stroke-miterlimit: 10; transform-origin: 144.71px 407.205px;" id="ele2ydhmtiofs" class="animable"></polygon><polygon points="134.96 379.46 122.7 434.95 166.71 434.95 155.96 379.46 134.96 379.46" style="fill: rgb(112, 112, 112); stroke: rgb(38, 50, 56); stroke-miterlimit: 10; transform-origin: 144.705px 407.205px;" id="ell6ao9n1vmhb" class="animable"></polygon><path d="M124.67,318.38l-.06.4H169.1C166,311.69,156.63,290.6,153,280.06c-3.4-9.89-2.38-13.39,3.55-21.67,12.57-17.57,3.37-44.94-21.28-35.17-10.82,4.29-15.17,19.84-10.61,30.09,4.79,10.78,15.17,22,12,32.74S125.46,312.79,124.67,318.38Z" style="fill: rgb(126, 87, 194); stroke: rgb(38, 50, 56); stroke-miterlimit: 10; transform-origin: 145.983px 269.975px;" id="eln9acr7e3n3b" class="animable"></path><path d="M153.79,219.81a15.57,15.57,0,0,0,12.78-6.68L164,192.45a15.58,15.58,0,1,0-10.2,27.36Z" style="fill: rgb(126, 87, 194); stroke: rgb(38, 50, 56); stroke-miterlimit: 10; transform-origin: 152.397px 204.23px;" id="elu9li2nxs9w" class="animable"></path><polygon points="166.15 209.79 159.28 154.7 131.97 154.7 125.09 209.79 166.15 209.79" style="fill: rgb(181, 181, 181); stroke: rgb(38, 50, 56); stroke-miterlimit: 10; transform-origin: 145.62px 182.245px;" id="el12r8jkraxfx" class="animable"></polygon><polygon points="157.31 209.79 153.4 154.7 137.85 154.7 133.94 209.79 157.31 209.79" style="fill: rgb(112, 112, 112); stroke: rgb(38, 50, 56); stroke-miterlimit: 10; transform-origin: 145.625px 182.245px;" id="el9m36lq4wh5w" class="animable"></polygon></g><g id="freepik--Table--inject-41" class="animable" style="transform-origin: 248.565px 434.97px;"><line x1="483.75" y1="434.97" x2="13.38" y2="434.97" style="fill: none; stroke: rgb(38, 50, 56); stroke-miterlimit: 10; transform-origin: 248.565px 434.97px;" id="elkpct2jpx0dr" class="animable"></line></g><defs>     <filter id="active" height="200%">         <feMorphology in="SourceAlpha" result="DILATED" operator="dilate" radius="2"></feMorphology>                <feFlood flood-color="#32DFEC" flood-opacity="1" result="PINK"></feFlood>        <feComposite in="PINK" in2="DILATED" operator="in" result="OUTLINE"></feComposite>        <feMerge>            <feMergeNode in="OUTLINE"></feMergeNode>            <feMergeNode in="SourceGraphic"></feMergeNode>        </feMerge>    </filter>    <filter id="hover" height="200%">        <feMorphology in="SourceAlpha" result="DILATED" operator="dilate" radius="2"></feMorphology>                <feFlood flood-color="#ff0000" flood-opacity="0.5" result="PINK"></feFlood>        <feComposite in="PINK" in2="DILATED" operator="in" result="OUTLINE"></feComposite>        <feMerge>            <feMergeNode in="OUTLINE"></feMergeNode>            <feMergeNode in="SourceGraphic"></feMergeNode>        </feMerge>            <feColorMatrix type="matrix" values="0   0   0   0   0                0   1   0   0   0                0   0   0   0   0                0   0   0   1   0 "></feColorMatrix>    </filter></defs></svg>